<?xml version="1.0" encoding="UTF-8" standalone="no"?>
<svg
   xmlns:dc="http://purl.org/dc/elements/1.1/"
   xmlns:cc="http://creativecommons.org/ns#"
   xmlns:rdf="http://www.w3.org/1999/02/22-rdf-syntax-ns#"
   xmlns:svg="http://www.w3.org/2000/svg"
   xmlns="http://www.w3.org/2000/svg"
   xmlns:sodipodi="http://sodipodi.sourceforge.net/DTD/sodipodi-0.dtd"
   xmlns:inkscape="http://www.inkscape.org/namespaces/inkscape"
   inkscape:version="1.0 (4035a4fb49, 2020-05-01)"
   sodipodi:docname="tool_icon.svg"
   id="svg12"
   viewBox="0 0 24 24"
   version="1.1">
  <metadata
     id="metadata18">
    <rdf:RDF>
      <cc:Work
         rdf:about="">
        <dc:format>image/svg+xml</dc:format>
        <dc:type
           rdf:resource="http://purl.org/dc/dcmitype/StillImage" />
      </cc:Work>
    </rdf:RDF>
  </metadata>
  <defs
     id="defs16" />
  <sodipodi:namedview
     inkscape:current-layer="svg12"
     inkscape:window-maximized="1"
     inkscape:window-y="105"
     inkscape:window-x="-8"
     inkscape:cy="8.7780785"
     inkscape:cx="7.8243976"
     inkscape:zoom="19.740064"
     showgrid="false"
     id="namedview14"
     inkscape:window-height="837"
     inkscape:window-width="1600"
     inkscape:pageshadow="2"
     inkscape:pageopacity="0"
     guidetolerance="10"
     gridtolerance="10"
     objecttolerance="10"
     borderopacity="1"
     bordercolor="#666666"
     pagecolor="#ffffff" />
  <path
     id="path2"
     d="M12,3.4l6,6l-6,6l-6-6L12,3.4 M5.3,7.3c-1.2,1.2-1.2,3.1,0,4.2l4.6,4.6c1.2,1.2,3.1,1.2,4.2,0l4.6-4.6  c1.2-1.2,1.2-3.1,0-4.2l-4.6-4.6c-1.2-1.2-3.1-1.2-4.2,0L5.3,7.3z" />
  <polygon
     id="polygon4"
     points="20.4,18 22,19.6 20.6,21 19,19.4 17.4,21 16,19.6 17.6,18 16,16.4 17.4,15 19,16.6 20.6,15 22,16.4" />
  <polygon
     id="polygon6"
     points="3,11.8 3,21 5,21 5,13.8" />
  <path
     id="path8"
     d="M13,18.7V21h-2v-2.3c0.3,0.1,0.7,0.1,1,0.1S12.7,18.8,13,18.7z" />
  <path
     id="path10"
     d="M8.6,17.4c0.1,0.1,0.3,0.3,0.4,0.4V21H7v-5.2L8.6,17.4z" />
  <polygon
     transform="matrix(1.4555288,1.4057083,-1.4334127,1.3843493,14.838325,-44.357264)"
     points="22,16.4 20.4,18 22,19.6 20.6,21 19,19.4 17.4,21 16,19.6 17.6,18 16,16.4 17.4,15 19,16.6 20.6,15 "
     id="polygon4-4" />
  <polygon
     style="fill:#ffffff"
     id="polygon4-4-1"
     points="20.6,15 22,16.4 20.4,18 22,19.6 20.6,21 19,19.4 17.4,21 16,19.6 17.6,18 16,16.4 17.4,15 19,16.6 "
     transform="matrix(0.71375796,0.66393745,-0.70291275,0.65384927,15.894492,-17.219152)" />
</svg>
